<svg xmlns="http://www.w3.org/2000/svg" version="1.1" xmlns:xlink="http://www.w3.org/1999/xlink" xmlns:svgjs="http://svgjs.dev/svgjs" viewBox="0 0 800 800"><defs><radialGradient id="ccclaymoji-grad-dark" r="93%" cx="20%" cy="20%">
      <stop offset="70%" stop-color="hsl(41, 100%, 67%)" stop-opacity="0"></stop>
      <stop offset="97%" stop-color="#c89924" stop-opacity="1"></stop>
    </radialGradient><radialGradient id="ccclaymoji-grad-light" r="65%" cx="28%" cy="20%">
    <stop offset="0%" stop-color="#fffd88" stop-opacity="0.75"></stop>
    <stop offset="100%" stop-color="hsl(41, 100%, 67%)" stop-opacity="0"></stop>
  </radialGradient><filter id="ccclaymoji-blur" x="-100%" y="-100%" width="400%" height="400%" filterUnits="objectBoundingBox" primitiveUnits="userSpaceOnUse" color-interpolation-filters="sRGB">
	<feGaussianBlur stdDeviation="39" x="0%" y="0%" width="100%" height="100%" in="SourceGraphic" edgeMode="none" result="blur"></feGaussianBlur></filter><filter id="inner-blur" x="-100%" y="-100%" width="400%" height="400%" filterUnits="objectBoundingBox" primitiveUnits="userSpaceOnUse" color-interpolation-filters="sRGB">
	<feGaussianBlur stdDeviation="2" x="0%" y="0%" width="100%" height="100%" in="SourceGraphic" edgeMode="none" result="blur"></feGaussianBlur></filter><filter id="eye-shadow" x="-100%" y="-100%" width="400%" height="400%" filterUnits="objectBoundingBox" primitiveUnits="userSpaceOnUse" color-interpolation-filters="sRGB">
	<feDropShadow stdDeviation="10" dx="10" dy="10" flood-color="#000000" flood-opacity="0.2" x="0%" y="0%" width="100%" height="100%" result="dropShadow"></feDropShadow>
</filter><linearGradient gradientTransform="rotate(-25)" id="eye-light" x1="50%" y1="0%" x2="50%" y2="100%">
      <stop offset="20%" stop-color="#555555" stop-opacity="1"></stop>
      <stop offset="100%" stop-color="black" stop-opacity="0"></stop>
    </linearGradient><linearGradient id="mouth-light" x1="50%" y1="0%" x2="50%" y2="100%">
    <stop offset="0%" stop-color="#ff9667" stop-opacity="1"></stop>
    <stop offset="100%" stop-color="hsl(3, 100%, 51%)" stop-opacity="0"></stop>
  </linearGradient><filter id="mouth-shadow" x="-100%" y="-100%" width="400%" height="400%" filterUnits="objectBoundingBox" primitiveUnits="userSpaceOnUse" color-interpolation-filters="sRGB">
	<feDropShadow stdDeviation="10" dx="10" dy="10" flood-color="#c20000" flood-opacity="0.2" x="0%" y="0%" width="100%" height="100%" result="dropShadow"></feDropShadow>
</filter></defs><g stroke-linecap="round" transform="rotate(10, 400, 400)"><path d="M663 449.9999909516615C663 620.7013656147344 554.7013746630728 759.0808534853543 384 759.0808534853543C213.29937735849057 759.0808534853543 105 620.7013656147344 105 449.9999909516615C105 279.2993683101521 213.29937735849057 140.91912841796875 384 140.91912841796875C554.7013746630728 140.91912841796875 663 279.2993683101521 663 449.9999909516615Z " fill="#c89924" opacity="0.25" filter="url(#ccclaymoji-blur)"></path><path d="M679 399.999994522486C679 580.4279432404347 580.4279487179488 663.1025586250502 400 663.1025586250502C219.57284615384614 663.1025586250502 121 580.4279432404347 121 399.999994522486C121 219.57284067633213 219.57284615384614 136.89743041992188 400 136.89743041992188C580.4279487179488 136.89743041992188 679 219.57284067633213 679 399.999994522486Z " fill="hsl(41, 100%, 67%)"></path><path d="M679 399.999994522486C679 580.4279432404347 580.4279487179488 663.1025586250502 400 663.1025586250502C219.57284615384614 663.1025586250502 121 580.4279432404347 121 399.999994522486C121 219.57284067633213 219.57284615384614 136.89743041992188 400 136.89743041992188C580.4279487179488 136.89743041992188 679 219.57284067633213 679 399.999994522486Z " fill="url(#ccclaymoji-grad-dark)"></path><path d="M679 399.999994522486C679 580.4279432404347 580.4279487179488 663.1025586250502 400 663.1025586250502C219.57284615384614 663.1025586250502 121 580.4279432404347 121 399.999994522486C121 219.57284067633213 219.57284615384614 136.89743041992188 400 136.89743041992188C580.4279487179488 136.89743041992188 679 219.57284067633213 679 399.999994522486Z " fill="url(#ccclaymoji-grad-light)"></path><ellipse rx="24" ry="25" cx="345" cy="375" fill="black" filter="url(#eye-shadow)"></ellipse><ellipse rx="24" ry="25" cx="345" cy="375" fill="url(#eye-light)" filter="url(#inner-blur)"></ellipse><ellipse rx="23.5" ry="25" cx="450" cy="375" fill="black" filter="url(#eye-shadow)"></ellipse><ellipse rx="23.5" ry="25" cx="450" cy="375" fill="url(#eye-light)" filter="url(#inner-blur)"></ellipse><path d="M351 496.5Q400 550.5 451 496.5 " stroke-width="25" stroke="hsl(3, 100%, 51%)" fill="none" filter="url(#mouth-shadow)"></path><path d="M351 496.5Q400 550.5 451 496.5 " stroke-width="8.333333333333334" stroke="url(#mouth-light)" fill="none" filter="url(#inner-blur)"></path></g></svg>